<svg xmlns="http://www.w3.org/2000/svg" viewBox="0 0 189 189"><defs><style>.cls-1{fill:#ff2c45;}.cls-2{fill:#fff;}</style></defs><g id="Capa_2" data-name="Capa 2"><g id="Capa_1-2" data-name="Capa 1"><rect class="cls-1" width="189" height="189" rx="35"/><path class="cls-2" d="M115.8,43.3h-1.31l-5.83-.11H41.87A1.85,1.85,0,0,0,40,45.06V55.61c0,11.64,8.24,18,23.07,18l52.73.11a10.11,10.11,0,1,1,0,20.21H56.7a1.89,1.89,0,0,0-1.87,1.43L40.88,150.75a2.17,2.17,0,0,0,.33,1.65,2,2,0,0,0,1.54.76H61.53c7,0,10.44-5.82,11.21-8.89l5.49-20.11h37.68a40.43,40.43,0,1,0-.11-80.86Z"/></g></g></svg>