<svg xmlns="http://www.w3.org/2000/svg" xmlns:xlink="http://www.w3.org/1999/xlink" viewBox="0 0 189 189"><defs><style>.cls-1{fill:none;}.cls-2{fill:#fc6150;}.cls-3{clip-path:url(#clip-path);}.cls-4{fill:#fff;}</style><clipPath id="clip-path"><rect class="cls-1" x="18" y="72.82" width="155" height="48.89"/></clipPath></defs><g id="Capa_2" data-name="Capa 2"><g id="Capa_1-2" data-name="Capa 1"><rect class="cls-2" width="189" height="189" rx="35"/><g class="cls-3"><path class="cls-4" d="M171,88.46c-8.16,7.13-15.39,7.58-24.08,1.19-4-2.94-7.57-6.44-11.57-9.36a46.42,46.42,0,0,0-9.91-5.9,19.6,19.6,0,0,0-17.92,1.8,115.9,115.9,0,0,0-10.77,7.92,2,2,0,0,1-1.24.57,2,2,0,0,1-1.24-.57,115.9,115.9,0,0,0-10.77-7.92,19.59,19.59,0,0,0-17.92-1.8,46.42,46.42,0,0,0-9.91,5.9c-4,2.92-7.58,6.42-11.57,9.36C35.4,96,28.17,95.59,20,88.46L18,86.7a45,45,0,0,0,7.7,18.21,38.67,38.67,0,0,0,19.51,14.72c19,6.41,42.95-2.53,50.29-19.41,7.34,16.88,31.31,25.82,50.29,19.41a38.63,38.63,0,0,0,19.51-14.72A45,45,0,0,0,173,86.7l-2,1.76"/></g></g></g></svg>