<svg xmlns="http://www.w3.org/2000/svg" viewBox="0 0 706.06 635.82"><defs><style>.cls-1{fill:#855327;}</style></defs><g id="Capa_2" data-name="Capa 2"><g id="Capa_1-2" data-name="Capa 1"><path class="cls-1" d="M338.26,274.35a160.46,160.46,0,0,0,10.16,30.15c1.44,3.17,2.93,6.18,4.44,9a743.31,743.31,0,0,1,48.56-89c28.28-44.34,54.53-75.05,70-93,20.52-23.82,39.2-43,53.75-57.14-76-51-176.3-46.32-245.17,10.48-73.34,60.48-94.92,166.75-50,253.5l-38.07,40.18c-46.58-111.27-15.65-239.88,75-315.81C352.36-8.86,475.06-20.36,574.46,34.36c8.65-4.61,49.79-25.92,85-21.95,7.33.83,18.25,2.26,28.23,10.5,5.89,4.88,10.65,11.71,14,21.1-30.13-2.38-53.66,10.44-77.66,28.5A248.29,248.29,0,0,1,642.61,93c10.68,13.22,92.1,114,52.81,219.47-25.49,68.43-87,99.06-102,106-77.6,35.82-149.3,9-162,4a313.67,313.67,0,0,1-31,70c-39.1,65.22-90.61,97.55-103,105-18.72,11.25-46,27.26-85,34-21.41,3.69-99.86,17.21-158.3-34.91-30-26.77-67.37-82.15-49.45-137.66,12-37,47.75-69.41,83.38-72.53,7.43-.65,26.05-2.32,42.08,9.64a53,53,0,0,1,18,24.47c1.64,4.48,6.45,17.58,2.05,33.17a52.76,52.76,0,0,1-14.76,23.82,54.3,54.3,0,0,1-4.82,4.14,112.49,112.49,0,0,1-14,9.1C110.53,494,90,508.08,88.42,526.5c-1.27,15.21,11,27.14,13.08,29.14,18.3,17.21,46.4,11.72,55.92,9.86,12.25-2.4,28.84-8.23,55-31,18.71-16.29,37.5-37,62-76a692.8,692.8,0,0,0,51-98,201.78,201.78,0,0,1-34.92-62.81ZM443.62,374c13.9,2.5,41.14,5.32,70.8-6.46,50.48-20.06,70-67.31,76-82,32.79-79.6-12.8-156.86-19-167A852.76,852.76,0,0,0,443.62,374Z"/></g></g></svg>