<svg xmlns="http://www.w3.org/2000/svg" viewBox="0 0 862.99 1041.5"><defs><style>.cls-1{fill:#855327;}.cls-2{fill:#e8962f;}.cls-3{fill:#855324;}.cls-4{font-size:37px;fill:#fff;font-family:Rubik-Medium, Rubik;font-weight:500;}</style></defs><g id="Capa_2" data-name="Capa 2"><g id="Capa_1-2" data-name="Capa 1"><path class="cls-1" d="M338.26,274.35a160.46,160.46,0,0,0,10.16,30.15c1.44,3.17,2.93,6.18,4.44,9a743.31,743.31,0,0,1,48.56-89c28.28-44.34,54.53-75.05,70-93,20.52-23.82,39.2-43,53.75-57.14-76-51-176.3-46.32-245.17,10.48-73.34,60.48-94.92,166.75-50,253.5l-38.07,40.18c-46.58-111.27-15.65-239.88,75-315.81C352.36-8.86,475.06-20.36,574.46,34.36c8.65-4.61,49.79-25.92,85-21.95,7.33.83,18.25,2.26,28.23,10.5,5.89,4.88,10.65,11.71,14,21.1-30.13-2.38-53.66,10.44-77.66,28.5A248.29,248.29,0,0,1,642.61,93c10.68,13.22,92.1,114,52.81,219.47-25.49,68.43-87,99.06-102,106-77.6,35.82-149.3,9-162,4a313.67,313.67,0,0,1-31,70c-39.1,65.22-90.61,97.55-103,105-18.72,11.25-46,27.26-85,34-21.41,3.69-99.86,17.21-158.3-34.91-30-26.77-67.37-82.15-49.45-137.66,12-37,47.75-69.41,83.38-72.53,7.43-.65,26.05-2.32,42.08,9.64a53,53,0,0,1,18,24.47c1.64,4.48,6.45,17.58,2.05,33.17a52.76,52.76,0,0,1-14.76,23.82,54.3,54.3,0,0,1-4.82,4.14,112.49,112.49,0,0,1-14,9.1C110.53,494,90,508.08,88.42,526.5c-1.27,15.21,11,27.14,13.08,29.14,18.3,17.21,46.4,11.72,55.92,9.86,12.25-2.4,28.84-8.23,55-31,18.71-16.29,37.5-37,62-76a692.8,692.8,0,0,0,51-98,201.78,201.78,0,0,1-34.92-62.81ZM443.62,374c13.9,2.5,41.14,5.32,70.8-6.46,50.48-20.06,70-67.31,76-82,32.79-79.6-12.8-156.86-19-167A852.76,852.76,0,0,0,443.62,374Z"/><path class="cls-2" d="M332.16,786.93C343.82,785,356,783.32,368.53,782a595.1,595.1,0,0,1,141.89,2.48Q493.74,837.29,477,890.08q-23.93,75.7-47.88,151.42C396.18,954.93,364.75,872.46,332.16,786.93Z"/><path class="cls-2" d="M414.42,693.5A666.15,666.15,0,0,0,299.53,706L277.42,655.5A250,250,0,0,0,370,597.71a299.19,299.19,0,0,0,186.33,13.47l-24,90.32A664.62,664.62,0,0,0,414.42,693.5Z"/><path class="cls-3" d="M178.42,840.5l12-35-32-22,64.47-18.56,7.53,35.56,75-14,3,24Z"/><path class="cls-3" d="M683.87,840.47,553.58,812.23c2.24-8.66,4.24-16.37,6.62-25.54l71.58,13.46,8.48-33.26,63.25,17.25-32.83,20.74C674.94,816.37,679,827.26,683.87,840.47Z"/><path class="cls-3" d="M223.5,731.79q8,28.35,15.92,56.71a885.94,885.94,0,0,1,385.57.37c4.58-19.29,9.07-38.13,13.35-56.15a847.93,847.93,0,0,0-414.84-.93Z"/><path class="cls-1" d="M862.42,524.5c-.84-.39-2.38,1.32-3,2-6.23,6.72-20.59,17.06-24,15-2.51-1.52-.06-10.31,3-19a220.65,220.65,0,0,1,22-45,58.23,58.23,0,0,0-12,0c-5.16.52-7.54,1.45-11,2-8.16,1.28-12.4-1.16-19-2-14.17-1.81-26.41,5.39-29,7-6.34,3.94-11.55,10.63-22,24-4,5.09-4.09,5.62-7,9a103.54,103.54,0,0,1-19,17c-5.43,3.79-11,7.62-13,6-1.31-1.07-.56-4,0-6,3.78-13.27,10.59-21.45,16-33,3.68-7.85,7.3-15.59,4-20-3-4-10.25-3.26-13-3-4.35.4-11.12,2.05-32,20-3.92,3.36-7,6.19-9,8a29.63,29.63,0,0,0,1-6c.4-6.55-1.54-11.43-3-15-2.29-5.59-4.49-10.62-8-11s-6.61,4-8,6a374.81,374.81,0,0,1-49,54c-2.7,2.44-7.11,6.19-9,5-1.62-1-.74-5.27,0-8,5.69-11.67,10.36-21.83,14-30,4.62-10.36,7.18-16.61,4.31-20.55-2.49-3.42-7.82-3.44-10.31-3.45-8.2,0-14.34,4.21-36,21-2.56,2-5.59,4.34-9,7,.33-3.34.67-6.67,1-10a25.5,25.5,0,0,0-1-8c-1.39-4.74-5.35-13.13-10-13-2.44.06-3.37,2.41-12,13-1.65,2-3.36,4-5,6-16.79,20.68-27.89,31.7-39,39-2.19,1.43-8.41,5.53-10,4-.7-.68-.25-2.18,0-3,2.27-7.39,6.58-17.66,8-21l15-36a40.15,40.15,0,0,0-10.8.61,39.7,39.7,0,0,0-5.2,1.39c-6.13,2.29-10.68,2.11-13.74,1.49-2.19-.45-2.93-1-6.76-2A90,90,0,0,0,481,476c-6.8-.78-19.8,2.74-31.09,11.05a65.51,65.51,0,0,0-17,19,76.22,76.22,0,0,0-10.47,26.11c-1.8,9.48-4.68,26.41,3.89,32.67,8.92,6.52,25.9-1.77,33.08-5.28a68.06,68.06,0,0,0,10-6,14.6,14.6,0,0,0,1.5,6.5,15.77,15.77,0,0,0,6.5,6.5c5.59,2.72,11.89.23,15-1,17.47-6.92,46.56-41.12,49-44a6.65,6.65,0,0,1,1,3,7.24,7.24,0,0,1-1,4c-1.46,2.67-6.72,14.48-14,31-.64,3.76.45,5.38,1,6,2.83,3.18,11,2.09,20-4l33-42c6.21-5.37,13.05-10.57,15-9,1.23,1,.06,4.29-5,17-7.32,18.39-9.85,24-8,31,.53,2,1.63,5.93,5,8,2.56,1.57,6.94,2.38,17.5-2.5,8.41-3.89,19.06-10.65,38.5-31.5,4-4.27,7.1-7.82,9-10a8,8,0,0,1,1,3,8.93,8.93,0,0,1-1,5c-1.44,3-4.93,14-10,31a7.44,7.44,0,0,0,2,5c3.6,3.53,12.27,2.36,21-4l30-44c10.57-8.87,14-9.89,15-9,1.23,1-.72,4.77-6,17-7.29,16.87-9,22.44-8,29,.46,2.9,1.05,6.6,4,9,6.46,5.24,18.59-.42,22-2,5.19-2.42,7.28-4.54,21-16,4.73-4,8.62-7.12,11.1-9.12a37.93,37.93,0,0,0-1.1,10.12c.14,5.2.3,11.2,4,15,5.46,5.61,16.41,4.16,23,1,3.8-1.71,7.82-3.69,12-6,3.6-2,6.94-4,10-6,0,1,.4,12.23,7.13,15a9.7,9.7,0,0,0,4.84.55c8.7-.76,15.23-6.35,17.14-8,7.78-6.65,17.52-14.77,28.89-24.62C862.54,530.34,863.71,525.09,862.42,524.5Zm-377-15.33c-5.11,9.42-8.65,17.8-15.22,22.8-.22.17-.42.31-.58.42-1.48,1-9.14,6.38-13,3.72s-1.38-12.37-.93-13.94a30.76,30.76,0,0,1,34.74-21.67C488.19,504.13,486.51,507.15,485.42,509.17Zm332,0c-5.11,9.42-8.65,17.8-15.22,22.8-.22.17-.42.31-.58.42-1.48,1-9.14,6.38-13,3.72s-1.38-12.37-.93-13.94a30.76,30.76,0,0,1,34.74-21.67C820.19,504.13,818.51,507.15,817.42,509.17Z"/><text class="cls-4" transform="matrix(0.98, -0.19, 0.19, 0.98, 243.5, 769.9)">H</text><text class="cls-4" transform="translate(269.79 764.79) rotate(-9.36)">e</text><text class="cls-4" transform="translate(290.76 761.38) rotate(-8.3)">l</text><text class="cls-4" transform="translate(300.34 759.93) rotate(-7.29)">a</text><text class="cls-4" transform="translate(321.15 757.26) rotate(-5.9)">d</text><text class="cls-4" transform="translate(343.57 754.95) rotate(-4.55)">e</text><text class="cls-4" transform="translate(364.74 753.29) rotate(-3.45)">r</text><text class="cls-4" transform="matrix(1, -0.05, 0.05, 1, 380.06, 752.39)">í</text><text class="cls-4" transform="translate(389.69 751.89) rotate(-1.8)">a</text><text class="cls-4" transform="translate(410.73 751.27) rotate(-0.94)"> </text><text class="cls-4" transform="translate(419.1 751.06) rotate(0.06)">&amp;</text><text class="cls-4" transform="translate(445.56 751.16) rotate(1.06)"> </text><text class="cls-4" transform="translate(453.92 751.25) rotate(2.01)">C</text><text class="cls-4" transform="matrix(1, 0.06, -0.06, 1, 479.07, 752.15)">a</text><text class="cls-4" transform="matrix(1, 0.07, -0.07, 1, 499.89, 753.38)">f</text><text class="cls-4" transform="translate(514.74 754.46) rotate(5.29)">e</text><text class="cls-4" transform="translate(535.81 756.44) rotate(6.3)">t</text><text class="cls-4" transform="translate(551.5 758.14) rotate(7.31)">e</text><text class="cls-4" transform="translate(572.56 760.87) rotate(8.31)">r</text><text class="cls-4" transform="translate(587.75 763.11) rotate(8.98)">í</text><text class="cls-4" transform="translate(597.31 764.58) rotate(9.81)">a</text></g></g></svg>